<svg width="20" height="35" viewBox="0 0 20 35" fill="none" xmlns="http://www.w3.org/2000/svg">
<path d="M15.5787 33.8272L0.492429 18.7559C0.313364 18.5765 0.186526 18.3821 0.111916 18.1728C0.0373052 17.9635 0 17.7392 0 17.5C0 17.2608 0.0373052 17.0365 0.111916 16.8272C0.186526 16.6179 0.313364 16.4235 0.492429 16.2441L15.5787 1.12797C15.9965 0.709323 16.5188 0.5 17.1455 0.5C17.7722 0.5 18.3094 0.724274 18.7571 1.17282C19.2047 1.62137 19.4286 2.14468 19.4286 2.74274C19.4286 3.34081 19.2047 3.86412 18.7571 4.31266L5.59579 17.5L18.7571 30.6873C19.1749 31.106 19.3838 31.6218 19.3838 32.2348C19.3838 32.8478 19.16 33.3786 18.7123 33.8272C18.2646 34.2757 17.7424 34.5 17.1455 34.5C16.5486 34.5 16.0263 34.2757 15.5787 33.8272Z" fill="url(#paint0_linear_16_313)"/>
<defs>
<linearGradient id="paint0_linear_16_313" x1="9.71429" y1="0.5" x2="9.71429" y2="34.5" gradientUnits="userSpaceOnUse">
<stop stop-color="#7392FF"/>
<stop offset="1" stop-color="#5FB35D"/>
</linearGradient>
</defs>
</svg>
