<svg width="426" height="84" viewBox="0 0 426 84" fill="none" xmlns="http://www.w3.org/2000/svg">
<path d="M20.5024 0V84H-0.000366211V0H20.5024Z" fill="#8CD1C8"/>
<path d="M148.074 41.883C148.074 33.7716 149.865 26.5571 153.445 20.2396C157.026 13.844 161.998 8.89136 168.364 5.38161C174.809 1.79387 182.089 0 190.205 0C200.15 0 208.664 2.57381 215.745 7.72144C222.827 12.8691 227.561 19.8886 229.948 28.7799H207.51C205.839 25.3482 203.452 22.7354 200.349 20.9415C197.326 19.1476 193.865 18.2507 189.966 18.2507C183.68 18.2507 178.588 20.3955 174.689 24.6852C170.791 28.9749 168.841 34.7075 168.841 41.883C168.841 49.0585 170.791 54.7911 174.689 59.0808C178.588 63.3705 183.68 65.5153 189.966 65.5153C193.865 65.5153 197.326 64.6184 200.349 62.8245C203.452 61.0306 205.839 58.4178 207.51 54.9861H229.948C227.561 63.8774 222.827 70.8969 215.745 76.0446C208.664 81.1142 200.15 83.649 190.205 83.649C182.089 83.649 174.809 81.8941 168.364 78.3844C161.998 74.7966 157.026 69.844 153.445 63.5265C149.865 57.2089 148.074 49.9944 148.074 41.883Z" fill="#A0DCFF"/>
<path d="M238.388 50.3064C238.388 43.5989 239.661 37.7103 242.207 32.6407C244.833 27.571 248.373 23.6713 252.829 20.9415C257.285 18.2117 262.258 16.8468 267.748 16.8468C272.442 16.8468 276.54 17.7827 280.041 19.6546C283.621 21.5265 286.366 23.9833 288.276 27.0251V17.7827H308.685V83.0641H288.276V73.8217C286.287 76.8635 283.502 79.3203 279.921 81.1922C276.42 83.0641 272.323 84 267.628 84C262.218 84 257.285 82.6351 252.829 79.9053C248.373 77.0975 244.833 73.1588 242.207 68.0891C239.661 62.9415 238.388 57.0139 238.388 50.3064ZM288.276 50.4234C288.276 45.4317 286.844 41.493 283.979 38.6072C281.194 35.7214 277.773 34.2785 273.715 34.2785C269.657 34.2785 266.196 35.7214 263.332 38.6072C260.547 41.415 259.155 45.3148 259.155 50.3064C259.155 55.298 260.547 59.2758 263.332 62.2395C266.196 65.1253 269.657 66.5682 273.715 66.5682C277.773 66.5682 281.194 65.1253 283.979 62.2395C286.844 59.3538 288.276 55.415 288.276 50.4234Z" fill="#FFE89D"/>
<path d="M360.567 66.1003V83.0641H350.183C342.784 83.0641 337.015 81.3092 332.878 77.7994C328.741 74.2117 326.672 68.4011 326.672 60.3677V34.3955H318.556V17.7827H326.672V1.87187H347.08V17.7827H360.448V34.3955H347.08V60.6017C347.08 62.5515 347.558 63.9554 348.512 64.8134C349.467 65.6713 351.059 66.1003 353.286 66.1003H360.567Z" fill="#92AAFF"/>
<path d="M399.027 84C393.219 84 388.047 83.0251 383.511 81.0752C378.976 79.1253 375.396 76.4735 372.77 73.1198C370.145 69.688 368.673 65.8663 368.354 61.6546H388.524C388.763 63.9164 389.837 65.7493 391.747 67.1532C393.656 68.5571 396.004 69.259 398.788 69.259C401.334 69.259 403.284 68.7911 404.636 67.8551C406.068 66.8412 406.785 65.5543 406.785 63.9944C406.785 62.1226 405.79 60.7577 403.801 59.8997C401.812 58.9638 398.589 57.9498 394.134 56.8579C389.36 55.766 385.381 54.6351 382.199 53.4652C379.016 52.2173 376.271 50.3064 373.964 47.7326C371.656 45.0808 370.502 41.532 370.502 37.0863C370.502 33.3426 371.537 29.9499 373.606 26.9081C375.754 23.7883 378.857 21.3315 382.915 19.5376C387.052 17.7437 391.946 16.8468 397.595 16.8468C405.949 16.8468 412.513 18.8747 417.287 22.9304C422.141 26.9861 424.926 32.3677 425.642 39.0752H406.785C406.466 36.8134 405.432 35.0195 403.681 33.6936C402.011 32.3677 399.783 31.7047 396.998 31.7047C394.611 31.7047 392.781 32.1727 391.508 33.1086C390.235 33.9666 389.598 35.1755 389.598 36.7354C389.598 38.6072 392.582 40.9471 392.582 40.9471C392.582 40.9471 397.833 42.8189 402.13 43.7549C407.063 45.0028 411.081 46.2507 414.184 47.4986C417.287 48.6685 419.993 50.6184 422.3 53.3482C424.687 56 425.92 59.5877 426 64.1114C426 67.9331 424.886 71.3649 422.658 74.4067C420.51 77.3705 417.367 79.7103 413.229 81.4262C409.172 83.1421 404.437 84 399.027 84Z" fill="#8CD1C8"/>
<path d="M105.529 0C96.8703 0 89.1203 4.1528 84.2885 10.5236C79.4567 4.1528 71.7068 0 63.0478 0C48.3611 0 36.449 11.7977 36.449 26.3797C36.449 31.9954 37.3578 37.1866 38.9365 42.0001C46.4952 65.5955 69.7931 79.7056 81.3225 83.5753C82.949 84.1416 85.6281 84.1416 87.2546 83.5753C98.7839 79.7056 122.082 65.5955 129.64 42.0001C131.219 37.1866 132.128 31.9954 132.128 26.3797C132.128 11.7977 120.216 0 105.529 0Z" fill="#FFD4CE"/>
</svg>
