<svg width="42" height="29" viewBox="0 0 42 29" fill="none" xmlns="http://www.w3.org/2000/svg">
<path d="M2.33333 28.5C1.67222 28.5 1.11806 28.2764 0.670833 27.8292C0.223611 27.3819 0 26.8278 0 26.1667C0 25.5056 0.223611 24.9514 0.670833 24.5042C1.11806 24.0569 1.67222 23.8333 2.33333 23.8333H39.6667C40.3278 23.8333 40.8819 24.0569 41.3292 24.5042C41.7764 24.9514 42 25.5056 42 26.1667C42 26.8278 41.7764 27.3819 41.3292 27.8292C40.8819 28.2764 40.3278 28.5 39.6667 28.5H2.33333ZM2.33333 16.8333C1.67222 16.8333 1.11806 16.6097 0.670833 16.1625C0.223611 15.7153 0 15.1611 0 14.5C0 13.8389 0.223611 13.2847 0.670833 12.8375C1.11806 12.3903 1.67222 12.1667 2.33333 12.1667H39.6667C40.3278 12.1667 40.8819 12.3903 41.3292 12.8375C41.7764 13.2847 42 13.8389 42 14.5C42 15.1611 41.7764 15.7153 41.3292 16.1625C40.8819 16.6097 40.3278 16.8333 39.6667 16.8333H2.33333ZM2.33333 5.16667C1.67222 5.16667 1.11806 4.94306 0.670833 4.49583C0.223611 4.04861 0 3.49444 0 2.83333C0 2.17222 0.223611 1.61806 0.670833 1.17083C1.11806 0.723611 1.67222 0.5 2.33333 0.5H39.6667C40.3278 0.5 40.8819 0.723611 41.3292 1.17083C41.7764 1.61806 42 2.17222 42 2.83333C42 3.49444 41.7764 4.04861 41.3292 4.49583C40.8819 4.94306 40.3278 5.16667 39.6667 5.16667H2.33333Z" fill="url(#paint0_linear_16_304)"/>
<defs>
<linearGradient id="paint0_linear_16_304" x1="21" y1="0.5" x2="21" y2="28.5" gradientUnits="userSpaceOnUse">
<stop stop-color="#7392FF"/>
<stop offset="1" stop-color="#5FB35D"/>
</linearGradient>
</defs>
</svg>
