<svg width="15" height="60" viewBox="0 0 15 60" fill="none" xmlns="http://www.w3.org/2000/svg">
<path d="M7.50004 60C5.66671 60 4.09726 59.3472 2.79171 58.0417C1.48615 56.7361 0.833374 55.1667 0.833374 53.3333C0.833374 51.5 1.48615 49.9306 2.79171 48.625C4.09726 47.3194 5.66671 46.6667 7.50004 46.6667C9.33337 46.6667 10.9028 47.3194 12.2084 48.625C13.5139 49.9306 14.1667 51.5 14.1667 53.3333C14.1667 55.1667 13.5139 56.7361 12.2084 58.0417C10.9028 59.3472 9.33337 60 7.50004 60ZM7.50004 40C5.66671 40 4.09726 39.3472 2.79171 38.0417C1.48615 36.7361 0.833374 35.1667 0.833374 33.3333V6.66667C0.833374 4.83333 1.48615 3.26389 2.79171 1.95833C4.09726 0.652778 5.66671 0 7.50004 0C9.33337 0 10.9028 0.652778 12.2084 1.95833C13.5139 3.26389 14.1667 4.83333 14.1667 6.66667V33.3333C14.1667 35.1667 13.5139 36.7361 12.2084 38.0417C10.9028 39.3472 9.33337 40 7.50004 40Z" fill="url(#paint0_linear_16_330)"/>
<defs>
<linearGradient id="paint0_linear_16_330" x1="7.50004" y1="0" x2="7.50004" y2="60" gradientUnits="userSpaceOnUse">
<stop stop-color="#7392FF"/>
<stop offset="1" stop-color="#5FB35D"/>
</linearGradient>
</defs>
</svg>
